# xmcd
#
# Track frame offsets:
#	150
#	10476
#	20679
#	33115
#	43900
#	54448
#	65683
#	83139
#	101277
#	114383
#	139495
#	153270
#	166049
#
# Disc length: 2515 seconds
#
# Revision: 1
# Processed by: cddbd v1.5.1PL0 Copyright (c) Steve Scherf et al.
# Submitted via: EasyCDDAExtractor 8.0.1.1
#
DISCID=a209d10d
DTITLE=Johnny Cash - American Recordings
DYEAR=1994
DGENRE=Country
TTITLE0=Delia's Gone
TTITLE1=Let The Train Blow The Whistle
TTITLE2=The Beast In Me
TTITLE3=Drive On
TTITLE4=Why Me Lord
TTITLE5=Thirteen
TTITLE6=Oh Bury Me Not
TTITLE7=Bird On A Wire
TTITLE8=Tennessee Stud
TTITLE9=Down There By The Train
TTITLE10=Redemption
TTITLE11=Like A Soldier
TTITLE12=The Man Who Couldn't Cry
EXTD=
EXTT0=
EXTT1=
EXTT2=
EXTT3=
EXTT4=
EXTT5=
EXTT6=
EXTT7=
EXTT8=
EXTT9=
EXTT10=
EXTT11=
EXTT12=
PLAYORDER=
